<?xml version="1.0" encoding="UTF-8"?>
<svg width="544px" height="544px" viewBox="0 0 544 544" version="1.1" xmlns="http://www.w3.org/2000/svg" xmlns:xlink="http://www.w3.org/1999/xlink">
    <title>jackdaw-bird-2022-white circle</title>
    <g id="jackdaw-bird-2022-white-circle" stroke="none" stroke-width="1" fill="none" fill-rule="evenodd">
        <circle id="Oval" fill="#000000" cx="272" cy="272" r="220"></circle>
        <g id="jackdaw-wht" transform="translate(98.950108, 51.975784)" fill="#FFFFFF">
            <path d="M204.940672,248.443147 C204.940672,248.443147 191.152489,237.139842 186.643415,229.993636 C182.134342,222.847429 168.023422,178.053983 161.498114,171.783684 C154.972807,165.513385 144.101403,155.612859 130.025724,131.150655 C120.641939,114.842518 113.398235,94.3249347 108.294613,69.597904 C106.674121,78.5036774 106.246074,85.2871404 107.010472,89.9482933 C108.157068,96.9400225 118.897985,117.06973 114.069515,110.742099 C109.241046,104.414468 84.2831477,65.3319384 81.1377408,53.6003795 C77.9923339,41.8688206 69.9812717,16.6479353 69.9812717,12.0976789 C69.9812717,10.6203597 65.836156,20.3253307 66.908782,35.9718163 C67.4929286,44.4928115 75.9463332,63.1792884 81.1377408,74.3781155 C69.1386813,68.283498 41.1420394,-1.36763253 38.1185487,0.0204698742 C35.2228744,1.34989104 34.1843735,15.4327645 36.1452152,22.4293528 C37.4524431,27.093745 45.0190334,41.9773773 58.8449861,67.0802497 C47.7854505,56.9991778 40.2188602,49.2466509 36.1452152,43.822669 C23.6187773,27.1439517 15.9369391,14.041731 15.1937361,15.6028445 C14.2379158,17.610565 12.3235991,21.4417105 12.7487196,27.4260202 C13.0543551,31.7283722 19.3566813,40.9397646 23.7785458,50.5817068 C28.2004103,60.2236491 39.0848299,69.597904 32.5076416,69.597904 C26.6923767,66.7393573 0,45.1869516 0,51.7041419 C0,67.7016664 0,126.502081 19.9313503,180.34212 C33.2189171,216.235479 51.0036588,246.972671 73.2855753,272.553696 C80.9679079,284.878494 90.1056413,292.739105 100.698775,296.135529 C111.291909,299.531952 123.427079,298.491965 137.104284,293.015568 C121.747772,316.026709 99.3734342,327.53228 69.9812717,327.53228 C40.5891092,327.53228 17.2620186,319.467045 0,303.336575 C34.4753094,349.103865 68.0415678,371.980012 100.698775,371.965014 C149.684586,371.937508 195.036487,339.525571 204.940672,331.655948 C214.844858,323.786326 246.854081,300.594901 252.002769,303.336575 C257.151457,306.078248 261.355322,310.999475 267.648157,312.204061 C271.843381,313.007119 282.627449,318.116525 300.000363,327.53228 C299.718366,321.882388 299.159166,318.115977 298.322762,316.233045 C297.068156,313.408647 293.159164,303.309759 292.430767,299.65344 C291.70237,295.997121 286.876074,280.140007 282.25681,273.676893 C279.177301,269.368151 276.926386,266.198436 275.504067,264.167749 C271.711864,263.983851 275.491015,261.950925 286.841521,258.068971 C303.86728,252.246041 308.395956,260.699698 321.481479,248.443147 C330.205161,240.272113 337.683234,228.019769 343.915696,211.686113 C345.720557,203.325916 346.622987,196.011868 346.622987,189.743969 C346.622987,183.47607 345.049861,174.042052 341.903609,161.441917 C337.269449,162.801528 334.080386,165.246899 332.336419,168.778031 C330.592452,172.309162 328.84501,175.267372 327.094091,177.652661 L327.094091,158.056306 C322.07391,159.727431 318.659555,162.213124 316.851023,165.513385 C314.138226,170.463777 310.827594,184.766652 308.77147,184.766652 C307.40072,184.766652 306.999371,180.066861 307.567422,170.66728 C301.529423,172.255139 297.049466,176.290545 294.127551,182.773496 C289.744678,192.497924 290.975367,199.905262 288.908444,201.595695 C287.530495,202.722651 285.8192,199.621369 283.774559,192.29185 C278.381513,193.427334 274.929969,195.470385 273.419928,198.421002 C271.154866,202.846927 270.873552,208.797448 254.701901,218.377295 C238.530249,227.957141 231.727701,230.714998 225.273207,233.932174 C218.818713,237.149351 204.940672,248.443147 204.940672,248.443147 Z"></path>
        </g>
    </g>
</svg>